# xmcd
#
# Track frame offsets:
# 150
# 20454
# 36458
# 57031
# 73331
# 92987
# 107195
# 124745
# 142559
# 156821
# 178176
# 198953
# 222837
#
# Disc length: 3247 seconds
#
#
# Revision: 0
# Processed by: cddbd v1.5.1PL2 Copyright (c) Steve Scherf et al.
# Submitted via: FreeRIP 2.944 
#
DISCID=ba0cad0d
DTITLE=Masta Ace - Hits U Missed Vol. 2
DYEAR=2005
DGENRE=Hip-Hop
TTITLE0=Survival f. Koolade
TTITLE1=What Am I? f. DJ JS1
TTITLE2=Gimme Gimme Gimme f. J-Zone
TTITLE3=What Is It f. Tommy Tee
TTITLE4=Out Da Box f. Tony Touch, Pete Rock and Large Professor
TTITLE5=Again f. DJ Serious
TTITLE6=Figure 8 f. UK's Finest
TTITLE7=The Call f. Code Red
TTITLE8=Family 1st f. Punchline and Apocolypse
TTITLE9=Blvd Connection f. Edo G and Common
TTITLE10=We Get It Done f. Strick and Joe Buddah
TTITLE11=Get Large f. Tribeca, Mr. Complex and Lord Tariq
TTITLE12=Who Killed Hip Hop f. Shams the Professor
EXTD=
EXTT0=
EXTT1=
EXTT2=
EXTT3=
EXTT4=
EXTT5=
EXTT6=
EXTT7=
EXTT8=
EXTT9=
EXTT10=
EXTT11=
EXTT12=
PLAYORDER=
